<svg width="22" height="22" viewBox="0 0 22 22" fill="none" xmlns="http://www.w3.org/2000/svg">
<path d="M11 0C4.92476 0 0 4.92551 0 11C0 17.0745 4.92476 22 11 22C17.0752 22 22 17.0745 22 11C22 4.92551 17.076 0 11 0ZM14.76 12.0339H11.9932V15.14C11.9932 15.7893 11.7953 15.9308 10.778 15.9308C9.76072 15.9308 9.56433 15.7893 9.56433 15.14V12.0339H6.79684C6.14748 12.0339 6.00602 11.921 6.00602 10.933C6.00602 9.91648 6.14748 9.83145 6.79684 9.83145H9.56433V6.69676C9.56433 6.0474 9.76148 5.90594 10.778 5.90594C11.7946 5.90594 11.9932 6.04665 11.9932 6.69676V9.83145H14.76C15.4101 9.83145 15.5508 9.91648 15.5508 10.933C15.5508 11.9202 15.4101 12.0339 14.76 12.0339Z" fill="black"/>
</svg>
