<svg width="25" height="27" viewBox="0 0 25 27" fill="none" xmlns="http://www.w3.org/2000/svg">
<path fill-rule="evenodd" clip-rule="evenodd" d="M13.3342 0C14.1753 0.224472 15.0579 0.352485 15.8494 0.692349C18.8469 1.97968 20.6246 4.26317 21.1556 7.49233C21.2548 8.09633 21.0294 8.4398 20.5408 8.52634C20.0233 8.6174 19.7358 8.36047 19.6195 7.70418C19.0299 4.39299 16.4164 1.87872 13.291 1.61728C9.82832 1.3279 6.81732 3.24989 5.71209 6.47184C5.57145 6.88292 5.49212 7.31924 5.42721 7.75016C5.33075 8.38481 5.03236 8.71746 4.54916 8.66518C4.04883 8.61109 3.75494 8.15673 3.83067 7.55363C4.30575 3.77727 7.47721 0.591381 11.2419 0.103672C11.3681 0.0874451 11.4907 0.0351583 11.6142 0C12.1875 0 12.7609 0 13.3342 0Z" fill="#181818"/>
<path fill-rule="evenodd" clip-rule="evenodd" d="M4.87146 26.0479C3.97267 25.7676 3.5724 25.1491 3.3903 24.2233C2.73221 20.858 2.0038 17.5071 1.28441 14.1536C1.24835 13.985 1.07706 13.802 0.920202 13.7091C0.179173 13.2719 -0.135449 12.6201 0.0538651 11.8385C0.223346 11.1399 0.861605 10.6729 1.69188 10.6729C8.89032 10.6693 16.0906 10.6702 23.289 10.6729C24.0859 10.6729 24.6665 11.0597 24.9027 11.715C25.1398 12.3722 24.9261 13.0195 24.3329 13.5559C24.1932 13.683 24.0688 13.8777 24.03 14.0607C23.289 17.5639 22.557 21.0699 21.8349 24.5767C21.6744 25.3547 21.1489 25.7667 20.4682 26.0479C15.2684 26.0479 10.0695 26.0479 4.87146 26.0479ZM11.2477 18.9793C11.2477 18.0066 11.2486 17.0339 11.2477 16.0611C11.2468 15.623 11.1648 15.2489 10.6059 15.2489C10.0578 15.2489 9.95048 15.6023 9.95138 16.0512C9.95319 18.0156 9.94868 19.9799 9.95319 21.9443C9.95499 22.5438 10.1804 22.8296 10.6248 22.8007C11.154 22.7656 11.2522 22.3987 11.2495 21.9542C11.2441 20.9635 11.2477 19.9709 11.2477 18.9793ZM7.19912 18.9703C7.19912 17.9786 7.19551 16.987 7.20092 15.9953C7.20363 15.5554 7.07561 15.2435 6.56266 15.2489C6.05873 15.2543 5.91899 15.5608 5.9199 16.0017C5.9226 18.0039 5.9244 20.0061 5.9199 22.0083C5.91809 22.4473 6.05963 22.7809 6.54283 22.7953C7.0657 22.8115 7.20994 22.4708 7.20453 22.002C7.19191 20.9923 7.20002 19.9818 7.19912 18.9703ZM15.2864 19.0559C15.2864 18.0453 15.2846 17.0348 15.2873 16.0242C15.2882 15.5942 15.1747 15.2633 14.6635 15.2498C14.119 15.2354 13.9955 15.5734 13.9964 16.0323C14 18.0156 14.0009 19.9989 13.9955 21.9813C13.9946 22.4374 14.1154 22.8007 14.6428 22.7962C15.1647 22.7917 15.2909 22.4284 15.2873 21.9732C15.281 21.0013 15.2864 20.0286 15.2864 19.0559ZM18.0432 19.0072C18.0432 20.0367 18.0486 21.0672 18.0405 22.0958C18.0369 22.5384 18.2361 22.7998 18.677 22.7962C19.116 22.7926 19.3152 22.5222 19.3152 22.0876C19.3125 20.0476 19.3134 18.0075 19.3152 15.9665C19.3152 15.5464 19.1683 15.2597 18.6986 15.2489C18.201 15.2381 18.036 15.5148 18.0405 15.9746C18.0495 16.9861 18.0423 17.9967 18.0432 19.0072Z" fill="#181818"/>
</svg>
