<svg width="23" height="23" viewBox="0 0 23 23" fill="none" xmlns="http://www.w3.org/2000/svg">
<path fill-rule="evenodd" clip-rule="evenodd" d="M11.5005 0C5.14861 0 0 5.14861 0 11.4995C0 17.8514 5.14861 23 11.5005 23C17.8514 23 23 17.8514 23 11.4995C23 5.14861 17.8514 0 11.5005 0ZM18.9334 16.1574C18.4295 17.4726 17.5769 18.4464 16.2232 18.9324C15.9591 18.9324 15.6959 18.9324 15.4308 18.9324C14.9044 18.83 14.3685 18.7623 13.8543 18.6175C11.5127 17.9633 9.58937 16.619 7.90387 14.9119C6.43365 13.4266 5.24825 11.7402 4.58082 9.74071C4.36085 9.0808 4.27061 8.37577 4.1202 7.69048C4.10234 7.60494 4.08448 7.52127 4.06662 7.43573C4.06662 7.23644 4.06662 7.03997 4.06662 6.84068C4.25181 6.46091 4.38999 6.04729 4.63441 5.70887C5.19185 4.93804 5.9279 4.37495 6.84162 4.06568C6.97323 4.06568 7.10577 4.06568 7.23738 4.06568C8.6512 4.9277 9.54142 6.23342 10.2521 7.67638C10.5078 8.19622 10.395 8.56378 9.92308 8.92006C9.4681 9.26411 8.97458 9.55834 8.50456 9.88454C8.08154 10.1778 8.06744 10.2107 8.30997 10.6507C9.26129 12.3813 10.6046 13.7265 12.3343 14.6806C12.7808 14.9279 12.8175 14.9147 13.1051 14.502C13.3242 14.1871 13.514 13.8496 13.7368 13.5357C13.907 13.295 14.0912 13.0581 14.299 12.8504C14.5471 12.6041 14.8658 12.5599 15.1873 12.6934C15.4797 12.8146 15.7899 12.9275 16.0409 13.1126C16.7769 13.6513 17.5111 14.1946 18.1936 14.7944C18.5028 15.067 18.6908 15.4778 18.9324 15.8275C18.9334 15.9375 18.9334 16.0475 18.9334 16.1574Z" fill="#181818"/>
</svg>
